{"accessors":[{"bufferView":0,"componentType":5123,"count":90408,"max":[17889],"min":[0],"type":"SCALAR"},{"bufferView":1,"componentType":5126,"count":17890,"max":[0.15809781849384308,0.0021845416631549597,0.16183917224407196],"min":[-0.16720810532569885,-0.006043926812708378,-0.16346673667430878],"type":"VEC3"},{"bufferView":2,"componentType":5126,"count":17890,"max":[1.0,1.0,1.0],"min":[-1.0,-1.0,-1.0],"type":"VEC3"},{"bufferView":3,"componentType":5126,"count":17890,"max":[0.682826578617096,0.9953547716140747],"min":[0.01271063182502985,0.6497631669044495],"type":"VEC2"},{"bufferView":4,"componentType":5123,"count":23808,"max":[4281],"min":[0],"type":"SCALAR"},{"bufferView":5,"componentType":5126,"count":4282,"max":[0.18608792126178741,0.011997206136584282,0.1898292601108551],"min":[-0.19519822299480438,-0.7837739586830139,-0.19145682454109192],"type":"VEC3"},{"bufferView":6,"componentType":5126,"count":4282,"max":[0.9992261528968811,0.9997374415397644,0.9992261528968811],"min":[-0.9992261528968811,-1.0,-0.9992262125015259],"type":"VEC3"},{"bufferView":7,"componentType":5126,"count":4282,"max":[0.993449866771698,0.9805426001548767],"min":[0.016561010852456093,0.6446129083633423],"type":"VEC2"},{"bufferView":8,"componentType":5123,"count":17664,"max":[3314],"min":[0],"type":"SCALAR"},{"bufferView":9,"componentType":5126,"count":3315,"max":[0.19813427329063416,-0.004727652296423912,0.20187565684318542],"min":[-0.20724458992481232,-0.7345362305641174,-0.20350322127342224],"type":"VEC3"},{"bufferView":10,"componentType":5126,"count":3315,"max":[0.9992262125015259,0.4951847493648529,0.9992262721061707],"min":[-0.9992262125015259,-0.6580753922462463,-0.9992262125015259],"type":"VEC3"},{"bufferView":11,"componentType":5126,"count":3315,"max":[0.9995676875114441,0.9901077151298523],"min":[0.00043247107532806695,0.007193148136138916],"type":"VEC2"}],"asset":{"generator":"Verge3D for Blender v4.8.0","version":"2.0"},"bufferViews":[{"buffer":0,"byteLength":180816,"byteOffset":0,"target":34963},{"buffer":0,"byteLength":214680,"byteOffset":180816,"target":34962},{"buffer":0,"byteLength":214680,"byteOffset":395496,"target":34962},{"buffer":0,"byteLength":143120,"byteOffset":610176,"target":34962},{"buffer":0,"byteLength":47616,"byteOffset":753296,"target":34963},{"buffer":0,"byteLength":51384,"byteOffset":800912,"target":34962},{"buffer":0,"byteLength":51384,"byteOffset":852296,"target":34962},{"buffer":0,"byteLength":34256,"byteOffset":903680,"target":34962},{"buffer":0,"byteLength":35328,"byteOffset":937936,"target":34963},{"buffer":0,"byteLength":39780,"byteOffset":973264,"target":34962},{"buffer":0,"byteLength":39780,"byteOffset":1013044,"target":34962},{"buffer":0,"byteLength":26520,"byteOffset":1052824,"target":34962}],"buffers":[{"byteLength":1079344,"uri":"untitled.bin"}],"cameras":[{"extensions":{"S8S_v3d_camera":{"controls":"ORBIT","enablePan":true,"moveSpeed":1,"orbitMaxDistance":10000,"orbitMaxPolarAngle":3.141592653589793,"orbitMinDistance":0,"orbitMinPolarAngle":0,"orbitTarget":[0.68288254737854,0.5921345353126526,0.4554564356803894],"rotateSpeed":1,"viewportFitInitialAspect":1,"viewportFitType":"VERTICAL"}},"name":"__DEFAULT__","perspective":{"aspectRatio":1,"yfov":0.7853981633974483,"zfar":1000.0,"znear":0.009999999776482582},"type":"perspective"}],"extensions":{"S8S_v3d_lights":{"lights":[{"color":[1.0,1.0,1.0],"intensity":1.0,"name":"Sun","profile":"blender","shadow":{"bias":-0.0018,"cameraFar":100,"cameraFov":0,"cameraNear":0.1,"csm":{"count":4,"exponent":0.800000011920929,"fade":0.10000000149011612,"lightMargin":0.0,"maxDistance":1000.0},"enabled":true,"expBias":2.5,"mapSize":1024,"radius":1.0,"slopeScaledBias":2.5},"type":"directional"}]},"S8S_v3d_materials":{"nodeGraphs":[{"edges":[{"fromNode":0,"fromOutput":0,"toInput":0,"toNode":3},{"fromNode":2,"fromOutput":0,"toInput":0,"toNode":1},{"fromNode":1,"fromOutput":0,"toInput":0,"toNode":6},{"fromNode":6,"fromOutput":0,"toInput":0,"toNode":0},{"fromNode":4,"fromOutput":0,"toInput":2,"toNode":1},{"fromNode":5,"fromOutput":0,"toInput":2,"toNode":4},{"fromNode":5,"fromOutput":1,"toInput":1,"toNode":0}],"name":"adams_place_bridge","nodes":[{"inputs":[[0.800000011920929,0.800000011920929,0.800000011920929,1.0],1.0],"is_active_output":false,"name":"HDRIHandler_ShaderNodeBackground","outputs":[[0,0,0,0]],"type":"BACKGROUND_BL"},{"inputs":[[0.0,0.0,0.0],[0.0,0.0,0.0],[0.0,0.0,0.0],[1.0,1.0,1.0]],"is_active_output":false,"name":"HDRIHandler_ShaderNodeMapping","outputs":[[0.0,0.0,0.0]],"type":"MAPPING_BL","vectorType":"POINT"},{"inputs":[],"is_active_output":false,"name":"HDRIHandler_ShaderNodeTexCoord","object":-1,"outputs":[[0.0,0.0,0.0],[0.0,0.0,0.0],[0.0,0.0,0.0],[0.0,0.0,0.0],[0.0,0.0,0.0],[0.0,0.0,0.0],[0.0,0.0,0.0]],"type":"TEX_COORD_BL"},{"inputs":[[0,0,0,0]],"is_active_output":true,"name":"Group Output","outputs":[],"type":"GROUP_OUTPUT_BL"},{"inputs":[0.0,0.0,17.69999885559082],"is_active_output":false,"name":"Combine XYZ","outputs":[[0.0,0.0,0.0]],"type":"COMBXYZ_BL"},{"inputs":[],"is_active_output":false,"name":"Group Input","outputs":[17.69999885559082,1.0],"type":"GROUP_INPUT_BL"},{"inputs":[[0.0,0.0,0.0]],"is_active_output":false,"name":"HDRIHandler_ShaderNodeTexEnvironment","outputs":[[0.0,0.0,0.0,0.0]],"projection":"EQUIRECTANGULAR","texture":1,"type":"TEX_ENVIRONMENT_BL"}]}]}},"extensionsUsed":["S8S_v3d_texture","S8S_v3d_materials","S8S_v3d_camera","S8S_v3d_lights","S8S_v3d_mesh","S8S_v3d_node","S8S_v3d_scene"],"images":[{"uri":"orange lable can.jpg"},{"uri":"adams_place_bridge_1k.hdr"}],"materials":[{"alphaMode":"OPAQUE","extensions":{"S8S_v3d_materials":{"gtaoVisible":true,"materialIndex":0,"nodeGraph":{"edges":[{"fromNode":1,"fromOutput":0,"toInput":0,"toNode":0},{"fromNode":5,"fromOutput":0,"toInput":5,"toNode":1},{"fromNode":3,"fromOutput":0,"toInput":2,"toNode":5},{"fromNode":2,"fromOutput":0,"toInput":0,"toNode":3},{"fromNode":4,"fromOutput":0,"toInput":0,"toNode":2}],"nodes":[{"inputs":[[0,0,0,0],[0,0,0,0],[0.0,0.0,0.0],0.0],"is_active_output":true,"name":"Material Output","outputs":[],"type":"OUTPUT_MATERIAL_BL"},{"inputs":[[0.800000011920929,0.800000011920929,0.800000011920929,1.0],1.0,0.23181816935539246,1.4500000476837158,1.0,[0.0,0.0,0.0],0.0,0.0,[1.0,0.20000000298023224,0.10000000149011612],0.05000000074505806,1.0099999904632568,0.0,0.5,[1.0,1.0,1.0,1.0],1.0,0.0,[0.0,0.0,0.0],0.0,0.0,0.029999999329447746,1.5,[1.0,1.0,1.0,1.0],[0.0,0.0,0.0],0.0,0.5,[1.0,1.0,1.0,1.0],[0.0,0.0,0.0,1.0],1.0,0.0,1.3300000429153442],"is_active_output":false,"name":"Principled BSDF","outputs":[[0,0,0,0]],"type":"BSDF_PRINCIPLED_BL"},{"inputs":[[0.0,0.0,0.0],[-16.69999885559082,0.0,0.0],[0.1186823770403862,0.0,0.1169370487332344],[498.5999450683594,1.0,1.0]],"is_active_output":false,"name":"Mapping","outputs":[[0.0,0.0,0.0]],"type":"MAPPING_BL","vectorType":"POINT"},{"dispersionFactor":1.0,"falloffFactor":0.0,"inputs":[[0.0,0.0,0.0],0.0,5.0,2.0,0.0,2.0,0.0,1.0,5.999999046325684],"is_active_output":false,"name":"Noise Texture","noiseType":"FBM","outputs":[0.0,[0.0,0.0,0.0,0.0]],"type":"TEX_NOISE_BL"},{"inputs":[],"is_active_output":false,"name":"Texture Coordinate","object":-1,"outputs":[[0.0,0.0,0.0],[0.0,0.0,0.0],[0.0,0.0,0.0],[0.0,0.0,0.0],[0.0,0.0,0.0],[0.0,0.0,0.0],[0.0,0.0,0.0]],"type":"TEX_COORD_BL"},{"inputs":[0.019999999552965164,0.10000000149011612,1.0,[0.0,0.0,0.0]],"invert":false,"is_active_output":false,"name":"Bump","outputs":[[0.0,0.0,0.0]],"type":"BUMP_BL"}]}}},"name":"backup_backup_backup_backup_Material body.002"},{"alphaMode":"OPAQUE","extensions":{"S8S_v3d_materials":{"gtaoVisible":true,"materialIndex":0,"nodeGraph":{"edges":[{"fromNode":1,"fromOutput":0,"toInput":0,"toNode":0},{"fromNode":5,"fromOutput":0,"toInput":5,"toNode":1},{"fromNode":2,"fromOutput":0,"toInput":2,"toNode":5},{"fromNode":3,"fromOutput":0,"toInput":0,"toNode":2},{"fromNode":4,"fromOutput":0,"toInput":0,"toNode":3}],"nodes":[{"inputs":[[0,0,0,0],[0,0,0,0],[0.0,0.0,0.0],0.0],"is_active_output":true,"name":"Material Output","outputs":[],"type":"OUTPUT_MATERIAL_BL"},{"inputs":[[1.0,0.8673326373100281,0.8220221996307373,1.0],1.0,0.2586972415447235,1.4500000476837158,1.0,[0.0,0.0,0.0],0.0,0.0,[1.0,0.20000000298023224,0.10000000149011612],0.05000000074505806,1.399999976158142,0.0,0.5,[1.0,1.0,1.0,1.0],0.0,0.0,[0.0,0.0,0.0],0.0,0.0,0.029999999329447746,1.5,[1.0,1.0,1.0,1.0],[0.0,0.0,0.0],0.0,0.5,[1.0,1.0,1.0,1.0],[0.0,0.0,0.0,1.0],1.0,0.0,1.3300000429153442],"is_active_output":false,"name":"Principled BSDF","outputs":[[0,0,0,0]],"type":"BSDF_PRINCIPLED_BL"},{"dispersionFactor":1.0,"falloffFactor":0.0,"inputs":[[0.0,0.0,0.0],0.0,-2.799999713897705,5.299999713897705,0.5,2.0,0.0,1.0,19.799999237060547],"is_active_output":false,"name":"Noise Texture","noiseType":"FBM","outputs":[0.0,[0.0,0.0,0.0,0.0]],"type":"TEX_NOISE_BL"},{"inputs":[[0.0,0.0,0.0],[0.0,0.0,0.0],[0.0,0.0,0.5201081037521362],[369.1999816894531,1.0,1.0]],"is_active_output":false,"name":"Mapping","outputs":[[0.0,0.0,0.0]],"type":"MAPPING_BL","vectorType":"POINT"},{"inputs":[],"is_active_output":false,"name":"Texture Coordinate","object":-1,"outputs":[[0.0,0.0,0.0],[0.0,0.0,0.0],[0.0,0.0,0.0],[0.0,0.0,0.0],[0.0,0.0,0.0],[0.0,0.0,0.0],[0.0,0.0,0.0]],"type":"TEX_COORD_BL"},{"inputs":[0.019583318382501602,6.399999618530273,1.0,[0.0,0.0,0.0]],"invert":false,"is_active_output":false,"name":"Bump","outputs":[[0.0,0.0,0.0]],"type":"BUMP_BL"}]}}},"name":"backup_backup_Material body.001"},{"alphaMode":"OPAQUE","extensions":{"S8S_v3d_materials":{"gtaoVisible":true,"materialIndex":0,"nodeGraph":{"edges":[{"fromNode":0,"fromOutput":0,"toInput":0,"toNode":1},{"fromNode":2,"fromOutput":0,"toInput":0,"toNode":0},{"fromNode":3,"fromOutput":0,"toInput":0,"toNode":2},{"fromNode":4,"fromOutput":2,"toInput":0,"toNode":3}],"nodes":[{"inputs":[[0.0,0.0,0.0,1.0],0.8136363625526428,0.2545454502105713,1.5,1.0,[0.0,0.0,0.0],0.0,0.0,[1.0,0.20000000298023224,0.10000000149011612],0.05000000074505806,1.399999976158142,0.0,0.5,[1.0,1.0,1.0,1.0],0.0,0.0,[0.0,0.0,0.0],0.0,0.0,0.029999999329447746,1.5,[1.0,1.0,1.0,1.0],[0.0,0.0,0.0],0.0,0.5,[1.0,1.0,1.0,1.0],[1.0,1.0,1.0,1.0],0.0,0.0,1.3300000429153442],"is_active_output":false,"name":"Principled BSDF","outputs":[[0,0,0,0]],"type":"BSDF_PRINCIPLED_BL"},{"inputs":[[0,0,0,0],[0,0,0,0],[0.0,0.0,0.0],0.0],"is_active_output":true,"name":"Material Output","outputs":[],"type":"OUTPUT_MATERIAL_BL"},{"alphaMode":"STRAIGHT","inputs":[[0.0,0.0,0.0]],"is_active_output":false,"name":"Image Texture","outputs":[[0.800000011920929,0.800000011920929,0.800000011920929,1.0],0.0],"projection":"FLAT","projectionBlend":0.0,"texture":0,"type":"TEX_IMAGE_BL"},{"inputs":[[0.0,0.0,0.0],[0.0,0.0,0.0],[0.0,0.0,0.0],[1.0,1.0,1.0]],"is_active_output":false,"name":"Mapping","outputs":[[0.0,0.0,0.0]],"type":"MAPPING_BL","vectorType":"POINT"},{"inputs":[],"is_active_output":false,"name":"Texture Coordinate","object":-1,"outputs":[[0.0,0.0,0.0],[0.0,0.0,0.0],[0.0,0.0,0.0],[0.0,0.0,0.0],[0.0,0.0,0.0],[0.0,0.0,0.0],[0.0,0.0,0.0]],"type":"TEX_COORD_BL"}]}}},"name":"lable.002"},{"alphaMode":"OPAQUE","extensions":{"S8S_v3d_materials":{"gtaoVisible":true,"materialIndex":0,"nodeGraph":{"edges":[{"fromNode":1,"fromOutput":0,"toInput":0,"toNode":0}],"nodes":[{"inputs":[[0,0,0,0],[0,0,0,0]],"is_active_output":true,"name":"World Output","outputs":[],"type":"OUTPUT_WORLD_BL"},{"inputs":[0.0,1.0],"is_active_output":false,"name":"Group","nodeGraph":0,"outputs":[[0,0,0,0]],"type":"GROUP_BL"}]}}},"name":"Verge3D_Environment_adams_place_bridge"}],"meshes":[{"extensions":{"S8S_v3d_mesh":{"colorLayers":{},"uvLayers":{"UVMap":"TEXCOORD_0"}}},"name":"Plane.001","primitives":[{"attributes":{"NORMAL":2,"POSITION":1,"TEXCOORD_0":3},"indices":0,"material":0,"mode":4},{"attributes":{"NORMAL":6,"POSITION":5,"TEXCOORD_0":7},"indices":4,"material":1,"mode":4},{"attributes":{"NORMAL":10,"POSITION":9,"TEXCOORD_0":11},"indices":8,"material":2,"mode":4}]}],"nodes":[{"extensions":{"S8S_v3d_lights":{"light":0},"S8S_v3d_node":{"frustumCulling":true,"groupNames":["Collection"],"hidden":false,"hidpiCompositing":false,"objectColor":[1.0,1.0,1.0,1.0],"objectIndex":0,"renderOrder":0,"useCastShadows":true}},"name":"Sun","rotation":[-0.21076327562332153,0.7109543085098267,-0.496060311794281,0.45171570777893066],"scale":[0.9999999403953552,0.9999999403953552,0.9999999403953552],"translation":[2.476696491241455,0.0,-1.7685599327087402]},{"extensions":{"S8S_v3d_node":{"frustumCulling":true,"groupNames":["Collection","RigidBodyWorld"],"hidden":false,"hidpiCompositing":false,"objectColor":[1.0,1.0,1.0,1.0],"objectIndex":0,"renderOrder":0,"useCastShadows":true,"useShadows":true}},"mesh":0,"name":"can left","rotation":[0.0,-0.4408848285675049,-0.0,0.8975636959075928],"scale":[2.0712509155273438,2.0712506771087646,2.0712509155273438],"translation":[0.0887143611907959,1.6214460134506226,0.25551605224609375]},{"camera":0,"name":"__DEFAULT_CAMERA__","rotation":[-0.01769111678004265,-0.980282187461853,-0.10366324335336685,0.16729557514190674],"scale":[0.9999998211860657,0.9999998211860657,0.9999998807907104],"translation":[-1.6614738702774048,2.1040101051330566,-6.2129716873168945]}],"samplers":[{}],"scene":0,"scenes":[{"extensions":{"S8S_v3d_scene":{"aaMethod":"AUTO","iblEnvironmentMode":"PMREM","physicallyCorrectLights":true,"pmremMaxTileSize":512,"shadowMap":{"esmDistanceScale":1.0,"renderReverseSided":false,"renderSingleSided":true,"type":"PCFPOISSON"},"toneMapping":{"look":"NONE","type":"agxBlender"},"worldMaterial":3}},"extras":{"animFrameRate":24,"coordSystem":"Z_UP_RIGHT"},"name":"Scene","nodes":[1,0,2]}],"textures":[{"extensions":{"S8S_v3d_texture":{"colorSpace":"srgb"}},"name":"orange lable can.jpg","sampler":0,"source":0},{"extensions":{"S8S_v3d_texture":{"colorSpace":"linear rec.709","source":1}},"name":"adams_place_bridge_1k.hdr","sampler":0}]}
